<svg width="26" height="30" viewBox="0 0 26 30" fill="none" xmlns="http://www.w3.org/2000/svg">
<path d="M19.039 0.0116693C23.0399 -0.226418 26.2408 3.21278 25.3818 7.21186C25.0867 8.58535 23.7257 8.47065 22.2969 8.47065C19.5546 8.47065 18.5767 7.26019 18.2392 6.9853C17.9022 6.71117 17.0683 6.69924 17.0683 7.52827C17.0685 10.5858 24.7154 13.3864 23.3828 20.7021C22.1955 27.218 16.0668 30.1065 10.1797 29.8007C4.74992 29.5187 0.148432 26.4183 0.00583468 21.1152C-0.0513172 18.9881 0.292181 17.4442 1.89255 15.7294C3.49277 14.0151 5.09309 13.2656 7.58787 12.9169C10.5227 12.5068 14.1716 14.1297 14.958 18.1376C15.4679 20.7371 13.6658 22.9926 11.4394 23.5322C10.1053 23.8553 8.04315 23.5862 7.31638 22.2363C7.07429 21.7943 6.7708 20.3916 7.66501 20.3916C8.301 20.3917 8.03094 21.0231 8.46482 21.2294C8.97811 21.4804 9.86897 21.2233 10.2842 20.9472C10.839 20.5672 10.9287 19.6236 10.7842 18.8125C10.6639 18.1378 9.57452 17.0887 7.97068 17.2851C6.00759 17.5256 4.62205 18.9881 4.62205 21.1152C4.75042 23.7891 7.31684 25.9547 10.1797 26.0146C13.978 26.094 17.6435 22.9613 17.6435 19.4775C17.6435 13.4438 11.6085 12.472 11.6084 7.52827C11.6084 2.92689 14.2379 0.297454 19.039 0.0116693ZM21.3965 2.01069C20.0738 2.01069 19.0011 3.08259 19.001 4.40522C19.001 5.72801 20.0737 6.80073 21.3965 6.80073C22.7191 6.80054 23.791 5.72789 23.791 4.40522C23.7908 3.0827 22.719 2.01088 21.3965 2.01069Z" fill="#B7F700"/>
</svg>
