<svg width="166" height="193" viewBox="0 0 166 193" fill="none" xmlns="http://www.w3.org/2000/svg">

    <path fill-rule="evenodd" clip-rule="evenodd" d="M123.213 0.0755611C149.105 -1.46561 169.818 20.7891 164.259 46.6693C162.35 55.5588 153.544 54.8197 144.297 54.8197C126.542 54.8197 120.215 46.9766 118.034 45.2025C115.853 43.4285 110.459 43.3531 110.459 48.7181C110.459 68.5057 159.952 86.6309 151.325 133.977C143.641 176.144 103.978 194.837 65.8786 192.858C30.7391 191.032 0.960192 170.966 0.0377984 136.646C-0.332066 122.88 1.88788 112.893 12.2448 101.796C22.6018 90.6995 32.9585 85.8496 49.1052 83.5931C68.0982 80.939 91.711 91.4389 96.8005 117.376C100.101 134.199 88.4423 148.796 74.0339 152.287C65.4001 154.38 52.0551 152.641 47.3513 143.905C45.7843 141.048 43.815 131.963 49.6042 131.963C53.7211 131.964 51.9732 136.05 54.7819 137.385C58.1042 139.01 63.8709 137.348 66.5573 135.561C70.1484 133.101 70.7247 126.993 69.7888 121.743C69.0101 117.376 61.961 110.589 51.5808 111.861C38.8767 113.417 29.9089 122.88 29.9089 136.646C30.7391 153.951 47.3512 167.968 65.8786 168.356C90.4599 168.87 114.184 148.594 114.184 126.048C114.184 87.0006 75.1268 80.7121 75.1267 48.7181C75.1267 18.9402 92.1416 1.92502 123.213 0.0755611ZM138.467 14.0013C129.906 14.0015 122.967 20.941 122.967 29.5013C122.967 38.0615 129.906 45.0012 138.467 45.0013C147.027 45.0013 153.966 38.0615 153.967 29.5013C153.967 20.9409 147.027 14.0013 138.467 14.0013Z" fill="#ADE62F"/>
</svg>
