<svg width="61" height="60" viewBox="0 0 61 60" fill="none" xmlns="http://www.w3.org/2000/svg">
<path fill-rule="evenodd" clip-rule="evenodd" d="M35.925 52.1905C41.3467 52.0014 46.2624 49.9558 49.0906 47.4704C50.6969 46.0588 51.9745 44.526 52.7654 43.109C54.8603 39.3556 54.7179 38.7503 50.2351 38.671C54.5266 37.548 56.8256 35.2961 58.2614 31.928C59.6442 28.6839 60.4218 25.0642 60.1569 22.8529C59.9124 20.8122 57.2862 22.2569 56.1822 22.7142C59.6645 20.6124 60.0149 17.066 59.6645 13.5337C59.0361 7.19839 55.5444 0 47.8726 0C42.9603 1.42758e-06 39.1252 3.40872 37.8728 7.05423C35.9716 12.5879 37.7513 16.0397 39.031 18.5216C39.1476 18.7478 39.2609 18.9676 39.3661 19.1786C38.7157 18.2866 38.2234 17.5412 37.8303 16.946C36.857 15.4723 36.4913 14.9186 35.8378 15.3368C34.0643 16.4716 32.8369 24.1306 33.5779 28.5146C32.5931 25.68 32.0824 24.316 31.0886 25.07C30.0912 25.8268 28.3226 28.6971 27.8268 33.2637C27.4598 30.3833 27.3136 29.9639 26.3916 30.7064C25.1503 31.7062 22.8167 34.6467 21.5641 38.0129C21.5793 37.8923 21.594 37.7754 21.6083 37.6616C21.8033 36.1092 21.9252 35.138 22.2605 33.3782C19.0396 36.1982 17.5302 38.328 15.6894 43.0151C15.767 40.7773 16.4137 37.44 17.7461 35.3832C15.6894 36.1723 13.3869 38.6947 12.9341 42.446C12.3821 40.9466 12.4178 39.9988 12.4705 38.6001C12.4741 38.5045 12.4778 38.4068 12.4814 38.3066C11.4724 39.9365 11.4842 43.047 11.9369 45.9704C11.3007 43.5052 9.86843 41.8897 8.41966 41.5146C9.45403 42.5819 10.2784 44.5165 10.6082 46.6049C10.3444 46.1213 8.90094 45.0441 7.93716 45.0441C8.63988 45.4954 9.6282 46.6609 10.0746 47.883C9.42308 47.3229 8.79838 46.9476 7.93716 46.9476C8.71486 47.326 9.42969 48.1668 9.7545 48.9937C9.80919 49.1329 9.95889 49.2166 10.1032 49.1773C32.046 43.2079 47.1432 30.6127 48.5088 6.96955C50.8058 42.4376 11.3935 50.6316 7.94064 51.3494C7.87528 51.363 7.82281 51.3739 7.78375 51.3823C7.45028 51.4571 7.08202 51.5397 6.68187 51.645C5.21703 52.0303 3.9353 52.1728 2.89673 52.2882C0.891429 52.5112 -0.207371 52.6334 0.0325719 54.2075C0.197939 55.2924 1.03879 55.65 2.23391 55.5529C2.94603 55.495 3.87911 55.1971 5.13742 54.7953C6.33705 54.4122 7.83243 53.9347 9.71404 53.4807C10.509 53.2889 11.087 53.1595 11.9925 53.8454C13.611 55.0716 14.6452 56.5478 15.5213 58.1046C15.4488 57.1658 15.3765 56.6463 15.063 55.7593C16.4924 57.7757 17.3259 58.6477 18.891 59.5738C18.1965 58.5578 17.8856 57.9739 17.3881 56.9252C19.1269 58.3607 20.8926 59.1357 23.3188 59.1357C20.8791 58.2192 19.5178 56.5748 18.5675 55.3347C25.0536 59.8241 37.4646 58.6935 42.9256 52.8149C40.2854 52.6764 37.9525 52.5197 35.925 52.1905Z" fill="#152646"/>
</svg>
